<svg width="704" height="72" viewBox="0 0 704 72" fill="none" xmlns="http://www.w3.org/2000/svg">
<path d="M467.833 21.9179C450.708 6.59617 402.868 -15.626 348.254 17.6756C314.285 38.3881 289.18 49.6944 271.068 55.0661C253.405 60.3046 242.479 59.8732 236.467 57.1206C214.578 39.5188 188.369 42.9708 162.978 50.7499C154.969 53.2037 147.004 56.101 139.27 58.9141C134.688 60.5808 130.188 62.2179 125.807 63.7158C113.997 67.754 103.035 70.7905 93.4999 70.7905C60.6963 70.7905 30.3186 52.9001 0.862111 21.9458L0.137695 22.6351C29.6812 53.6809 60.3035 71.7905 93.4999 71.7905C103.215 71.7905 114.315 68.702 126.13 64.662C130.551 63.1506 135.068 61.5074 139.656 59.8383C147.367 57.0329 155.28 54.1544 163.271 51.706C188.513 43.9728 214.169 40.6595 235.591 57.7005L235.547 57.7888C235.675 57.8525 235.804 57.9151 235.936 57.9766C236.019 58.0434 236.101 58.1104 236.184 58.1778L236.236 58.1134C242.621 60.945 253.801 61.2301 271.353 56.0248C289.578 50.6195 314.765 39.2666 348.774 18.5294C402.908 -14.4788 450.258 7.54663 467.151 22.6497C496.692 53.6882 526.81 71.2905 560 71.2905C569.716 71.2905 580.817 68.1702 592.632 64.0833C597.099 62.5382 601.664 60.8565 606.302 59.1482C613.968 56.3242 621.831 53.4276 629.773 50.9554C655.248 43.0257 681.144 39.5998 702.684 57.1779L703.316 56.4031C681.355 38.4811 655.001 42.0553 629.476 50.0006C621.517 52.478 613.601 55.3938 605.912 58.2258L605.909 58.227C601.278 59.9326 596.73 61.6077 592.305 63.1383C580.495 67.2233 569.534 70.2905 560 70.2905C527.194 70.2905 497.317 52.8982 467.862 21.9458L467.848 21.9313L467.833 21.9179Z" fill="#1AEAAB"/>
</svg>
