<svg width="85" height="80" viewBox="0 0 85 80" fill="none" xmlns="http://www.w3.org/2000/svg">
<rect width="85" height="80" rx="12" fill="#36C6FF" fill-opacity="0.1"/>
<path d="M49.0916 47.721V55.002H51.7283V46.6665L53.9607 45.7734L37.2263 39.08L20.4919 45.7734L37.2263 52.4669L49.0916 47.721Z" fill="#36C6FF"/>
<path d="M47.7732 34.0099L59.6384 29.264V36.5449H62.2751V28.2095L64.5076 27.3164L47.7732 20.6229L31.0388 27.3164L47.7732 34.0099Z" fill="#36C6FF"/>
<path d="M30.2484 29.479L28.3842 27.6147L26.7411 29.2579C27.0606 24.457 31.028 20.6367 35.9082 20.6367V18C29.535 18 24.3593 23.0607 24.0929 29.3694L22.3383 27.6148L20.4741 29.479L25.3613 34.3662L30.2484 29.479Z" fill="#36C6FF"/>
<path d="M64.5258 48.8843L59.6387 43.9971L54.7515 48.8842L56.6158 50.7485L58.3203 49.0439V51.1348C58.3203 56.2228 54.1799 60.3633 49.0918 60.3633V63C55.6346 63 60.957 57.6776 60.957 51.1348V49.0439L62.6617 50.7486L64.5258 48.8843Z" fill="#36C6FF"/>
<path d="M27.998 51.6156V54.2295L28.3843 54.6158C28.5079 54.7393 31.4742 57.6387 37.2266 57.6387C42.9789 57.6387 45.9452 54.7393 46.0688 54.6157L46.4551 54.2294V51.6155L37.2266 55.307L27.998 51.6156Z" fill="#36C6FF"/>
<path d="M38.5449 33.1586V35.7725L38.9312 36.1587C39.0548 36.2823 42.0211 39.1817 47.7734 39.1817C53.5258 39.1817 56.4921 36.2823 56.6157 36.1587L57.002 35.7724V33.1585L47.7734 36.85L38.5449 33.1586Z" fill="#36C6FF"/>
</svg>
