<svg width="18" height="17" viewBox="0 0 18 17" fill="none" xmlns="http://www.w3.org/2000/svg">
<g clip-path="url(#clip0)">
<path d="M5.50766 2.44546C5.64035 1.33136 6.14823 0.570886 7.19163 0.317948C7.49335 0.244729 7.81956 0.275515 8.13392 0.273018C8.83137 0.268026 9.52881 0.270522 10.2262 0.271354C11.445 0.27385 12.2056 0.928661 12.4418 2.18004C12.4568 2.25908 12.4686 2.33812 12.4868 2.44462C13.9054 2.44462 15.3121 2.47375 16.7173 2.43547C17.8223 2.40552 18.0063 2.69257 18 3.80583C17.9763 7.61737 17.9921 11.4289 17.9929 15.2405C17.9929 16.05 17.782 16.268 17.0056 16.268C11.6504 16.268 6.29514 16.2672 0.939927 16.2655C0.213261 16.2655 0.000789855 16.0376 0.000789855 15.2746C0 11.3391 0 7.40271 0 3.46636C0 2.70672 0.248804 2.44546 0.969942 2.44546C2.33797 2.44462 3.70679 2.44546 5.07482 2.44546C5.21857 2.44546 5.36153 2.44546 5.50766 2.44546ZM1.41937 14.802C6.49656 14.802 11.5271 14.802 16.5569 14.802C16.5569 11.805 16.5569 8.83797 16.5569 5.7869C16.4479 5.95997 16.3816 6.05898 16.3208 6.16132C15.7205 7.17057 15.1123 8.17484 14.5262 9.19325C14.3122 9.56433 14.0405 9.73823 13.625 9.72991C12.8494 9.71327 12.0729 9.73656 11.2965 9.72575C11.0627 9.72242 10.9261 9.78066 10.8068 10.0203C10.4253 10.7824 9.8021 11.1785 8.98223 11.1751C8.17737 11.1718 7.5676 10.7683 7.18926 10.0303C7.05893 9.77567 6.91123 9.71743 6.66716 9.72075C5.8781 9.73157 5.08824 9.71576 4.29918 9.72824C3.9319 9.73407 3.68072 9.5843 3.48879 9.25398C2.88455 8.21477 2.26609 7.18472 1.65159 6.15216C1.59393 6.05482 1.52521 5.96413 1.41937 5.80937C1.41937 8.85378 1.41937 11.8141 1.41937 14.802ZM2.01808 3.92731C2.04335 4.00968 2.04967 4.06543 2.07574 4.10786C2.86085 5.43578 3.6436 6.76621 4.44214 8.08498C4.50217 8.18399 4.6712 8.25638 4.79126 8.2597C5.44842 8.27718 6.10637 8.28217 6.76353 8.25804C6.89543 8.25305 7.07789 8.13906 7.14187 8.01841C7.55338 7.25211 8.15999 6.82362 8.99487 6.82278C9.82974 6.82195 10.4379 7.24712 10.8471 8.01675C10.9111 8.1374 11.0935 8.25305 11.2246 8.25804C11.8684 8.28217 12.5137 8.28383 13.1574 8.25554C13.3043 8.24889 13.5002 8.13074 13.58 8.00011C14.3335 6.76537 15.0665 5.51732 15.8042 4.27177C15.8619 4.17359 15.9061 4.06709 15.9748 3.92731C11.2918 3.92731 6.66953 3.92731 2.01808 3.92731ZM11.0287 2.42299C10.9727 1.95705 10.761 1.71743 10.3518 1.7116C9.44745 1.69829 8.54307 1.69829 7.63869 1.71493C7.22085 1.72242 7.0147 1.95705 6.96257 2.42299C8.31875 2.42299 9.67256 2.42299 11.0287 2.42299ZM8.9767 8.27219C8.61969 8.283 8.30216 8.62247 8.30058 8.99605C8.299 9.38711 8.63864 9.72991 9.01619 9.71743C9.37795 9.70578 9.69547 9.36714 9.6931 8.99522C9.69073 8.60583 9.34951 8.26137 8.9767 8.27219Z" fill="black" fill-opacity="0.5"/>
</g>
<defs>
<clipPath id="clip0">
<rect width="18" height="16" fill="white" transform="translate(0 0.269775)"/>
</clipPath>
</defs>
</svg>
