<svg width="85" height="80" viewBox="0 0 85 80" fill="none" xmlns="http://www.w3.org/2000/svg">
<rect width="85" height="80" rx="12" fill="#FF4340" fill-opacity="0.1"/>
<g clip-path="url(#clip0)">
<path d="M45.8681 22.5246C47.9878 22.5246 50.0196 22.5293 52.0529 22.523C53.2525 22.5184 54.3893 22.7622 55.4318 23.3625C57.6394 24.6334 58.7009 26.5811 58.748 29.087C58.7778 30.6471 58.7684 32.2103 58.7495 33.7704C58.7354 34.935 58.291 35.3445 57.1056 35.3461C55.5888 35.3492 54.0737 35.3523 52.5569 35.3445C51.4829 35.3398 51.037 34.9193 51.0135 33.8329C50.9883 32.6667 51.0072 31.499 51.0072 30.275C49.2675 30.275 47.6125 30.275 45.9246 30.275C45.8854 30.7831 45.8901 31.252 45.8069 31.7054C45.6122 32.7637 44.5162 33.1951 43.7374 32.4557C41.9412 30.7502 40.1952 28.9916 38.468 27.2158C37.9719 26.7062 38.0001 26.0278 38.4994 25.5182C40.1952 23.7846 41.9035 22.0619 43.6699 20.4002C43.962 20.1251 44.6544 19.9781 45.0014 20.1329C45.3861 20.3033 45.6656 20.8551 45.8414 21.299C45.9749 21.6336 45.8681 22.0588 45.8681 22.5246Z" fill="#FF4340"/>
<path d="M35.5584 58.4613C33.4717 58.4613 31.5122 58.4629 29.5527 58.4613C25.4138 58.4566 22.6598 55.7069 22.6739 51.6035C22.6786 50.1184 22.6676 48.635 22.6833 47.1499C22.6943 46.0854 23.1528 45.6477 24.2299 45.643C25.8 45.6367 27.3686 45.632 28.9387 45.6398C29.9154 45.6445 30.3786 46.0963 30.3958 47.0717C30.4131 48.0878 30.4241 49.1039 30.3911 50.1184C30.3738 50.6406 30.5685 50.7891 31.0741 50.7781C32.3287 50.75 33.5848 50.75 34.8409 50.7828C35.37 50.7953 35.6354 50.6515 35.5616 50.0872C35.538 49.9074 35.4972 49.6886 35.5741 49.5479C35.8097 49.118 36.0185 48.6146 36.3875 48.3301C36.8632 47.9628 37.4002 48.2332 37.799 48.6162C38.6642 49.4478 39.5073 50.3045 40.3584 51.1502C41.1733 51.9599 41.9976 52.7603 42.7968 53.5841C43.4751 54.2828 43.4767 54.9363 42.7889 55.6319C41.1921 57.2451 39.5749 58.8412 37.9702 60.4466C37.5117 60.9046 36.9983 61.1672 36.3514 60.8905C35.7029 60.6123 35.5427 60.0558 35.56 59.4117C35.5647 59.1272 35.5584 58.8474 35.5584 58.4613Z" fill="#FF4340"/>
<path d="M48.523 50.7641C52.5456 54.2704 57.5764 54.003 61.172 50.7938C62.1439 51.6442 62.7845 52.7243 63.3121 53.8842C64.1866 55.8117 63.9951 57.8611 63.9527 59.8823C63.937 60.5857 63.2979 60.9859 62.403 60.9875C58.1652 60.9922 53.9274 60.9906 49.6911 60.9906C48.8543 60.9906 48.0174 61.0016 47.1805 60.9859C46.4975 60.9734 45.9558 60.6498 45.9197 59.9558C45.7799 57.292 45.6967 54.6205 47.3454 52.2835C47.7002 51.777 48.1037 51.3018 48.523 50.7641Z" fill="#FF4340"/>
<path d="M35.4124 32.8121C36.9213 34.3456 37.8555 36.0839 38.0534 38.1505C38.1649 39.3135 38.1303 40.4922 38.1146 41.6646C38.1036 42.5947 37.6373 43.0355 36.6858 43.0371C31.6095 43.0465 26.5348 43.0465 21.4586 43.0371C20.482 43.0355 20.025 42.5619 20.0235 41.5849C20.0219 39.6903 19.8068 37.7503 20.6892 35.9808C21.2403 34.8771 21.9579 33.8579 22.6692 32.6902C24.6098 34.4082 26.6495 35.3414 29.0612 35.3492C31.4823 35.3586 33.5408 34.4738 35.4124 32.8121Z" fill="#FF4340"/>
<path d="M22.6865 26.3967C22.6818 22.856 25.5505 20.0016 29.1147 20C32.682 19.9984 35.5538 22.8435 35.557 26.3842C35.5601 29.8983 32.6459 32.8137 29.1257 32.8168C25.5976 32.8199 22.6897 29.9217 22.6865 26.3967Z" fill="#FF4340"/>
<path d="M54.865 37.9504C58.4339 37.9441 61.3151 40.7908 61.3214 44.3283C61.3277 47.8377 58.4104 50.7625 54.8933 50.7734C51.3793 50.7844 48.451 47.8706 48.4431 44.3549C48.4353 40.8048 51.2898 37.9566 54.865 37.9504Z" fill="#FF4340"/>
</g>
<defs>
<clipPath id="clip0">
<rect width="44" height="41" fill="white" transform="translate(20 20)"/>
</clipPath>
</defs>
</svg>
