<svg width="64" height="64" viewBox="0 0 64 64" fill="none" xmlns="http://www.w3.org/2000/svg">
<circle cx="32" cy="32" r="32" fill="#1AEAAB" fill-opacity="0.1"/>
<g clip-path="url(#clip0)">
<path d="M44.1368 30.1366C43.2897 30.1398 42.5514 30.7141 42.3396 31.5341H41.3418V32.4657H42.3396C42.5835 33.401 43.5026 33.9938 44.4552 33.8298C45.4076 33.6658 46.0758 32.7999 45.9928 31.8371C45.9098 30.8742 45.1032 30.1352 44.1368 30.1366Z" fill="#1AE8AC"/>
<path d="M28.7642 18.0251C27.7352 18.0251 26.9009 18.8594 26.9009 19.8884C26.9009 20.9176 27.7352 21.7517 28.7642 21.7517C29.0387 21.7501 29.3092 21.6873 29.5562 21.5677L30.4469 22.637C30.1314 23.1376 30.075 23.759 30.295 24.3083C30.5152 24.8576 30.9853 25.2682 31.5592 25.4124V26.41H32.4908V25.4124C33.0649 25.2682 33.5349 24.8576 33.755 24.3083C33.9752 23.759 33.9188 23.1376 33.6033 22.637L34.494 21.5677C34.7411 21.6873 35.0115 21.7501 35.2858 21.7517C36.1536 21.7576 36.9121 21.1676 37.1198 20.3251C37.3277 19.4826 36.9303 18.6074 36.1595 18.2093C35.3884 17.811 34.4449 17.9937 33.8781 18.6506C33.3113 19.3077 33.2692 20.2678 33.7762 20.972L32.925 21.9935C32.3685 21.6712 31.6818 21.6712 31.1252 21.9935L30.274 20.972C30.6844 20.4061 30.7422 19.6575 30.4235 19.0352C30.1046 18.4131 29.4634 18.0226 28.7642 18.0251Z" fill="#1AE8AC"/>
<path d="M39.4781 22.6833C38.4491 22.6833 37.6148 23.5177 37.6148 24.5467C37.6166 24.8783 37.7078 25.2033 37.8791 25.4872L35.8879 27.4781L36.5467 28.1368L38.5376 26.1459C38.8217 26.3172 39.1467 26.4084 39.4781 26.41C40.5073 26.41 41.3414 25.5759 41.3414 24.5467C41.3414 23.5177 40.5073 22.6833 39.4781 22.6833Z" fill="#1AE8AC"/>
<path d="M41.0125 22.3541L41.5583 21.8085L42.2171 22.4674L41.6709 23.0131L41.0125 22.3541Z" fill="#1AE8AC"/>
<path d="M42.8755 21.8081L43.196 21.4876C43.4801 21.6589 43.8051 21.7501 44.1365 21.7517C45.1658 21.7517 45.9999 20.9176 45.9999 19.8883C45.9999 18.8593 45.1658 18.025 44.1365 18.025C43.1075 18.025 42.2732 18.8593 42.2732 19.8883C42.275 20.22 42.3663 20.545 42.5375 20.8289L42.217 21.1494L42.8755 21.8081Z" fill="#1AE8AC"/>
<path d="M24.5716 22.6833C23.5426 22.6833 22.7083 23.5177 22.7083 24.5467C22.7083 25.5759 23.5426 26.41 24.5716 26.41C24.9032 26.4084 25.2282 26.3172 25.5121 26.1459L27.503 28.1368L28.1617 27.4781L26.1708 25.4872C26.3421 25.2033 26.4333 24.8783 26.4349 24.5467C26.4349 23.5177 25.6008 22.6833 24.5716 22.6833Z" fill="#1AE8AC"/>
<path d="M19.9134 21.7517C20.245 21.7501 20.57 21.6589 20.8539 21.4876L21.1744 21.8081L21.8331 21.1494L21.5126 20.8289C21.6839 20.545 21.7751 20.22 21.7767 19.8883C21.7767 18.8593 20.9426 18.025 19.9134 18.025C18.8844 18.025 18.05 18.8593 18.05 19.8883C18.05 20.9176 18.8844 21.7517 19.9134 21.7517Z" fill="#1AE8AC"/>
<path d="M21.8335 22.4669L22.4922 21.8082L23.0381 22.3541L22.3792 23.0128L21.8335 22.4669Z" fill="#1AE8AC"/>
<path d="M39.4781 37.5899C39.1467 37.5917 38.8217 37.6829 38.5376 37.8542L36.5467 35.863L35.8879 36.5217L37.8791 38.5127C37.7078 38.7968 37.6166 39.1218 37.6148 39.4532C37.6148 40.4824 38.4491 41.3165 39.4781 41.3165C40.5073 41.3165 41.3414 40.4824 41.3414 39.4532C41.3414 38.4242 40.5073 37.5899 39.4781 37.5899Z" fill="#1AE8AC"/>
<path d="M44.1365 42.2482C43.8051 42.25 43.4801 42.3412 43.196 42.5125L42.8755 42.192L42.217 42.8505L42.5375 43.171C42.3663 43.4551 42.275 43.7801 42.2732 44.1115C42.2732 45.1408 43.1075 45.9748 44.1365 45.9748C45.1658 45.9748 45.9999 45.1408 45.9999 44.1115C45.9999 43.0825 45.1658 42.2482 44.1365 42.2482Z" fill="#1AE8AC"/>
<path d="M35.2858 45.9748C36.315 45.9748 37.1491 45.1407 37.1491 44.1115C37.1491 43.0824 36.315 42.2481 35.2858 42.2481C35.0112 42.2506 34.7408 42.3143 34.494 42.4347L33.6033 41.3631C33.9188 40.8625 33.9752 40.2411 33.755 39.6918C33.5348 39.1425 33.0649 38.7319 32.4908 38.5877V37.5898H31.5592V38.5877C30.9853 38.7319 30.5151 39.1425 30.295 39.6918C30.075 40.2411 30.1314 40.8625 30.4469 41.3631L29.5562 42.4347C29.3094 42.3143 29.0387 42.2506 28.7642 42.2481C27.8964 42.2425 27.1381 42.8325 26.9302 43.675C26.7225 44.5175 27.1197 45.3925 27.8907 45.7908C28.6618 46.189 29.6053 46.0064 30.1721 45.3495C30.7389 44.6924 30.781 43.7323 30.274 43.0281L31.1252 42.0064C31.6817 42.3289 32.3684 42.3289 32.925 42.0064L33.7762 43.0281C33.3656 43.594 33.3081 44.3426 33.6267 44.9646C33.9456 45.587 34.5868 45.9773 35.2858 45.9748Z" fill="#1AE8AC"/>
<path d="M41.0125 41.6459L41.6709 40.9869L42.2168 41.5326L41.5583 42.1915L41.0125 41.6459Z" fill="#1AE8AC"/>
<path d="M19.9134 45.9748C20.9426 45.9748 21.7767 45.1408 21.7767 44.1115C21.7751 43.7801 21.6839 43.4551 21.5126 43.171L21.8331 42.8505L21.1744 42.192L20.8539 42.5125C20.57 42.3412 20.245 42.25 19.9134 42.2482C18.8844 42.2482 18.05 43.0825 18.05 44.1115C18.05 45.1408 18.8844 45.9748 19.9134 45.9748Z" fill="#1AE8AC"/>
<path d="M27.503 35.863L25.5121 37.8542C25.2282 37.6829 24.9032 37.5917 24.5716 37.5899C23.5426 37.5899 22.7083 38.4242 22.7083 39.4532C22.7083 40.4824 23.5426 41.3165 24.5716 41.3165C25.6008 41.3165 26.4349 40.4824 26.4349 39.4532C26.4333 39.1218 26.3421 38.7968 26.1708 38.5127L28.1617 36.5217L27.503 35.863Z" fill="#1AE8AC"/>
<path d="M21.8335 41.5328L22.3792 40.9872L23.0381 41.6459L22.4922 42.1918L21.8335 41.5328Z" fill="#1AE8AC"/>
<path d="M37.615 31.5341H38.5466V32.4657H37.615V31.5341Z" fill="#1AE8AC"/>
<path d="M39.4783 31.5341H40.4099V32.4657H39.4783V31.5341Z" fill="#1AE8AC"/>
<path d="M19.9136 33.8633C20.7608 33.8601 21.4992 33.286 21.7109 32.4658H22.7085V31.5341H21.7109C21.4671 30.599 20.5477 30.0063 19.5953 30.1703C18.643 30.334 17.9747 31.2002 18.0577 32.163C18.1408 33.1258 18.9473 33.8648 19.9136 33.8633Z" fill="#1AE8AC"/>
<path d="M25.5034 31.5341H26.4351V32.4657H25.5034V31.5341Z" fill="#1AE8AC"/>
<path d="M23.6404 31.5341H24.572V32.4657H23.6404V31.5341Z" fill="#1AE8AC"/>
<path d="M29.6959 34.9045V34.8722C29.9832 34.0497 30.4517 33.302 31.067 32.6852L31.0845 32.6674C31.6622 33.0198 32.388 33.0198 32.9656 32.6674L32.9833 32.6852C33.5986 33.302 34.0671 34.0497 34.3542 34.8722V34.9045C32.9949 36.0006 31.0554 36.0006 29.6959 34.9045ZM32.025 31.9998C31.5105 31.9998 31.0934 31.5829 31.0934 31.0682C31.0934 30.5537 31.5105 30.1365 32.025 30.1365C32.5398 30.1365 32.9567 30.5537 32.9567 31.0682C32.9567 31.5829 32.5398 31.9998 32.025 31.9998ZM35.0631 34.1507C34.7297 33.3582 34.2473 32.6372 33.642 32.0265L33.6243 32.0087C33.7955 31.7248 33.8867 31.3998 33.8883 31.0682C33.8883 30.0392 33.0543 29.2049 32.025 29.2049C30.996 29.2049 30.1617 30.0392 30.1617 31.0682C30.1635 31.3998 30.2547 31.7248 30.426 32.0087L30.4083 32.0265C29.803 32.6372 29.3206 33.3582 28.9869 34.1507C27.8883 32.604 28.1269 30.4786 29.5414 29.2142C30.9558 27.9498 33.0945 27.9498 34.5088 29.2142C35.9232 30.4786 36.162 32.604 35.0631 34.1507Z" fill="#1AE8AC"/>
</g>
<defs>
<clipPath id="clip0">
<rect width="28" height="28" fill="white" transform="translate(18 18)"/>
</clipPath>
</defs>
</svg>
