<svg width="85" height="80" viewBox="0 0 85 80" fill="none" xmlns="http://www.w3.org/2000/svg">
<rect width="85" height="80" rx="12" fill="#442DD1" fill-opacity="0.1"/>
<g clip-path="url(#clip0)">
<path d="M55.7493 39.3154C55.4737 41.7557 55.4919 44.2754 54.8637 46.6203C53.202 52.8158 47.1408 56.5871 40.6763 55.7377C34.4895 54.9249 29.6361 49.5138 29.5084 43.2249C29.4537 40.5874 29.4598 37.9458 29.5185 35.3083C29.6685 28.3468 35.4278 22.7325 42.413 22.6898C49.4145 22.6471 55.2143 28.1517 55.4838 35.1275C55.5365 36.5133 55.4919 37.9011 55.4919 39.2889C55.575 39.2971 55.6622 39.3052 55.7493 39.3154ZM42.3299 50.2169C43.9309 50.1966 45.2846 49.7698 46.4498 48.8026C47.0739 48.2845 47.5035 47.7013 46.9726 46.8966C46.5389 46.2383 45.856 46.2809 44.9684 46.9596C43.404 48.1544 41.5619 48.1727 40.0339 46.9413C39.3794 46.4151 38.7674 46.1204 38.0845 46.8072C37.5637 47.3335 37.7319 48.1422 38.5121 48.829C39.6307 49.8125 40.9844 50.1518 42.3299 50.2169Z" fill="#442DD1"/>
<path d="M60.3571 47.5712C60.1585 48.835 60.0572 49.9851 59.7937 51.0966C58.1462 58.048 52.2289 62.8231 45.1139 62.9796C44.0683 63.0019 43.0206 63.0141 41.9749 62.9796C40.1936 62.9207 38.9372 61.6364 38.9696 59.954C39.0021 58.302 40.2321 57.1295 42.0012 57.0848C42.7429 57.0665 43.4867 57.0665 44.2304 57.0869C45.9468 57.1336 46.9479 58.046 47.2134 59.7772C47.2377 59.9377 47.2843 60.0962 47.341 60.34C50.2369 59.8056 52.6018 58.4239 54.535 56.2822C56.5291 54.0714 57.6031 51.4481 57.8098 48.4835C57.8341 48.1462 57.5281 47.7804 57.3559 47.437C57.1431 47.0124 56.7175 46.5999 56.7135 46.1792C56.6649 42.3551 56.679 38.5289 56.7054 34.7027C56.7074 34.3633 56.833 33.8615 57.0701 33.7151C57.7409 33.3088 57.591 32.7947 57.4592 32.2318C55.8178 25.2439 49.6188 20.3448 42.441 20.3651C35.3281 20.3834 29.1412 25.3211 27.5362 32.2521C27.4025 32.8251 27.3093 33.3149 27.9456 33.7334C28.1989 33.9001 28.3043 34.4467 28.3063 34.8205C28.3306 38.5777 28.3266 42.3368 28.3124 46.0939C28.3083 47.1546 27.899 47.5488 26.8331 47.5651C25.7874 47.5813 24.7397 47.5793 23.694 47.5651C21.6392 47.5366 20.1214 46.1671 20.0565 44.1127C19.9795 41.6784 19.9896 39.236 20.0606 36.8017C20.1193 34.7555 21.6351 33.323 23.694 33.3738C24.6485 33.3982 24.9707 33.136 25.1794 32.1688C27.0073 23.6853 34.1811 17.9064 42.6558 18.0019C51.1974 18.0974 58.2516 24.0409 59.9498 32.5711C59.9944 32.7987 60.0511 33.0243 60.1261 33.3514C60.5395 33.3514 60.9367 33.3453 61.3339 33.3535C63.3482 33.3921 64.862 34.7189 64.9349 36.7286C65.0261 39.2299 65.02 41.7394 64.9288 44.2428C64.8579 46.1833 63.334 47.5264 61.3886 47.5712C61.0522 47.5772 60.7158 47.5712 60.3571 47.5712Z" fill="#442DD1"/>
</g>
<defs>
<clipPath id="clip0">
<rect width="45" height="45" fill="white" transform="translate(20 18)"/>
</clipPath>
</defs>
</svg>
