<svg width="11" height="11" viewBox="0 0 11 11" fill="none" xmlns="http://www.w3.org/2000/svg">
<path d="M8.2851 0.153024C7.9692 0.0470208 7.63696 8.42074e-05 7.30418 8.42074e-05C6.57113 -0.00518956 5.8597 0.237404 5.27378 0.685147C5.22632 0.648758 5.1683 0.616588 5.11557 0.585473C5.06283 0.553303 4.9679 0.474724 4.88879 0.432533L4.68839 0.342879C4.58292 0.284868 4.47269 0.242678 4.35614 0.205234C4.3456 0.195214 4.32977 0.184139 4.30868 0.174119H4.27756C3.96588 0.0681158 3.64418 0.0101044 3.31194 8.42074e-05H3.25393C3.10626 8.42074e-05 2.95912 0.0101044 2.81093 0.0317268H2.74764C2.58943 0.0522945 2.43174 0.0892109 2.27881 0.141949C0.311161 0.785876 -0.39025 2.92175 0.205686 4.78867C0.543207 5.74269 1.08693 6.60812 1.79362 7.31955C2.82148 8.31102 3.94532 9.18647 5.15248 9.93534L5.2896 10.0202L5.42145 9.94061C6.62439 9.18647 7.74191 8.31102 8.76027 7.32482C9.4717 6.61339 10.0149 5.74269 10.3471 4.78867C10.9331 2.92175 10.2317 0.785876 8.2851 0.153024V0.153024Z" fill="#297EFF"/>
</svg>
