<svg width="85" height="80" viewBox="0 0 85 80" fill="none" xmlns="http://www.w3.org/2000/svg">
<rect width="85" height="80" rx="12" fill="#126AE4" fill-opacity="0.1"/>
<g clip-path="url(#clip0)">
<path d="M42.4952 62.9984C36.8453 62.9984 31.1954 63 25.5455 62.9984C22.4329 62.9968 20.0064 60.6968 20 57.7507C19.9936 54.7917 22.3863 52.4451 25.5005 52.4403C36.8276 52.4243 48.1547 52.4259 59.4803 52.4403C62.6218 52.4451 65.0161 54.8207 64.9872 57.8262C64.9598 60.7129 62.5157 62.9968 59.4449 62.9984C53.7966 63.0016 48.1467 62.9984 42.4952 62.9984ZM42.508 59.022C43.2537 59.014 43.8129 58.429 43.7888 57.6784C43.7663 56.976 43.1894 56.4247 42.4839 56.4295C41.7849 56.436 41.2145 57.0033 41.2048 57.7041C41.1936 58.4595 41.7576 59.0285 42.508 59.022ZM38.5133 57.7427C38.5229 57.0033 37.9316 56.4103 37.1956 56.4231C36.5046 56.4344 35.9213 57.021 35.9149 57.7137C35.9085 58.4161 36.4644 58.9979 37.1651 59.0204C37.9267 59.0445 38.5036 58.4981 38.5133 57.7427ZM54.351 57.725C54.351 57.0387 53.7661 56.4424 53.0751 56.4231C52.3456 56.4038 51.7301 57.0049 51.7366 57.7314C51.7414 58.4483 52.2861 59.0012 53.0028 59.0188C53.7468 59.0381 54.351 58.4579 54.351 57.725ZM49.0643 57.7587C49.0851 57.066 48.5292 56.4601 47.8382 56.4231C47.1102 56.3829 46.49 56.9599 46.4739 57.6912C46.4578 58.4209 46.9672 58.9722 47.6887 59.0108C48.4343 59.0494 49.0434 58.4965 49.0643 57.7587ZM26.6591 56.4295C25.9633 56.4392 25.3848 57.0178 25.3767 57.7105C25.3687 58.4611 25.944 59.0301 26.696 59.0188C27.4384 59.0092 28.0217 58.4 27.9864 57.6703C27.9542 56.9873 27.3484 56.4199 26.6591 56.4295ZM33.2394 57.7443C33.2506 57.0387 32.7059 56.4569 32.0053 56.4247C31.287 56.391 30.6474 56.9921 30.6362 57.7073C30.6249 58.4081 31.1761 58.9835 31.8864 59.0092C32.6464 59.0397 33.2281 58.4965 33.2394 57.7443ZM59.6201 57.7234C59.6201 57.0307 59.048 56.4504 58.349 56.4295C57.6291 56.4086 56.9976 57.0242 57.0072 57.7379C57.0169 58.4499 57.5696 59.0044 58.2815 59.0172C59.0319 59.0333 59.6201 58.4643 59.6201 57.7234Z" fill="#126AE4"/>
<path d="M44.8813 44.8283C43.779 43.7017 42.6542 42.5959 41.5904 41.4354C41.3477 41.1718 41.2128 40.7186 41.2031 40.3473C41.1629 38.687 41.1533 37.0251 41.2095 35.3664C41.224 34.9566 41.4281 34.4631 41.7109 34.1674C43.3242 32.4878 44.9344 30.797 46.665 29.2428C47.2146 28.7477 48.1289 28.6593 49.0127 28.3347C49.0127 25.9527 49.0127 23.3473 49.0127 20.6616C48.717 20.6472 48.431 20.6214 48.145 20.6198C46.3243 20.615 44.5037 20.6263 42.6831 20.6134C41.727 20.607 41.1903 20.1184 41.1935 19.3051C41.1967 18.5031 41.7543 18.0032 42.6911 18.0032C49.6266 17.9984 56.562 17.9984 63.4958 18.0032C64.4134 18.0032 64.9902 18.5336 64.9854 19.3228C64.9822 20.1055 64.4198 20.6054 63.4717 20.6134C61.6784 20.6279 59.8835 20.6182 58.0902 20.6182C57.8009 20.6182 57.5101 20.6182 57.1614 20.6182C57.1614 23.2943 57.1614 25.8997 57.1614 28.5034C57.2112 28.5372 57.2578 28.5934 57.2947 28.5886C58.606 28.4198 59.4978 29.0804 60.3447 29.9901C61.6205 31.3611 62.972 32.6646 64.3105 33.9761C64.7797 34.4358 65.016 34.9325 64.9999 35.6075C64.9629 37.1601 65.0015 38.7143 64.9774 40.2669C64.9726 40.5996 64.9308 41.032 64.7267 41.2426C63.5585 42.4416 62.3356 43.5859 61.0453 44.8316C61.0453 43.655 60.9971 42.538 61.0774 41.4322C61.0999 41.1284 61.4743 40.8166 61.7475 40.5739C62.1974 40.1737 62.3115 39.7092 62.4015 39.1161C62.7711 36.6812 61.7652 35.0176 60.0409 33.3348C58.4774 31.8079 56.9846 31.0252 54.796 31.2406C52.887 31.4286 50.9426 31.2486 49.0175 31.3049C48.5949 31.3177 48.0936 31.5428 47.7818 31.8353C46.5686 32.9668 45.3988 34.1481 44.2563 35.352C44.0104 35.6107 43.8626 36.0334 43.8224 36.3967C43.7533 37.0315 43.8545 37.6841 43.7951 38.3222C43.697 39.399 43.8722 40.328 44.8283 40.9934C44.9761 41.0963 45.0918 41.3502 45.0951 41.5367C45.1208 42.5991 45.1079 43.6631 45.1079 44.7255C45.0324 44.7592 44.9569 44.7946 44.8813 44.8283Z" fill="#126AE4"/>
<path d="M58.3234 49.7787C54.8026 49.7787 51.3349 49.7787 47.7853 49.7787C47.7853 48.218 47.7853 46.6992 47.7853 45.1803C47.7853 43.6808 47.7772 42.1812 47.7885 40.6832C47.7949 39.6803 48.2577 39.2013 49.2572 39.1949C51.8266 39.182 54.3961 39.182 56.9655 39.1965C57.8686 39.2013 58.3941 39.6899 58.4005 40.5723C58.4182 43.5441 58.4021 46.516 58.3957 49.4862C58.3941 49.5633 58.3587 49.6389 58.3234 49.7787Z" fill="#126AE4"/>
<path d="M26.7249 49.7658C26.7089 49.4701 26.6832 49.2081 26.6832 48.9477C26.6799 46.2459 26.6767 43.5425 26.6832 40.8407C26.6864 39.6337 27.1251 39.1885 28.3222 39.1853C30.7567 39.1788 33.1912 39.1788 35.6256 39.1853C36.7312 39.1885 37.2004 39.6482 37.202 40.7314C37.2084 43.7242 37.2036 46.7169 37.2036 49.7658C33.6909 49.7658 30.2328 49.7658 26.7249 49.7658Z" fill="#126AE4"/>
<path d="M42.5082 59.022C41.7578 59.0301 41.1938 58.4595 41.205 57.7041C41.2146 57.0033 41.7851 56.436 42.4841 56.4295C43.1895 56.4231 43.7664 56.976 43.7889 57.6784C43.813 58.4273 43.2554 59.014 42.5082 59.022Z" fill="white"/>
<path d="M38.5135 57.7427C38.5038 58.4981 37.9269 59.0445 37.1653 59.0188C36.4647 58.9963 35.9087 58.4145 35.9151 57.7121C35.9215 57.021 36.5048 56.4343 37.1958 56.4215C37.9318 56.4102 38.5231 57.0033 38.5135 57.7427Z" fill="white"/>
<path d="M54.351 57.725C54.351 58.4579 53.7468 59.0381 53.0028 59.0204C52.2846 59.0027 51.7414 58.4498 51.7366 57.733C51.7318 57.0049 52.3456 56.4054 53.0752 56.4247C53.7661 56.4424 54.351 57.0387 54.351 57.725Z" fill="white"/>
<path d="M49.0643 57.7587C49.0434 58.4949 48.4344 59.0478 47.6888 59.0092C46.9673 58.9722 46.4595 58.4193 46.4739 57.6896C46.49 56.9599 47.1103 56.3813 47.8382 56.4215C48.5292 56.4617 49.0852 57.066 49.0643 57.7587Z" fill="white"/>
<path d="M26.6591 56.4295C27.3469 56.4199 27.9543 56.9873 27.9864 57.6719C28.0218 58.4 27.4385 59.0092 26.6961 59.0204C25.9424 59.0317 25.3688 58.4611 25.3768 57.7121C25.3848 57.0178 25.9633 56.4392 26.6591 56.4295Z" fill="white"/>
<path d="M33.2393 57.7443C33.2281 58.4965 32.6464 59.0397 31.8863 59.0108C31.1776 58.9835 30.6265 58.4097 30.6361 57.7089C30.6474 56.9921 31.2869 56.3926 32.0052 56.4263C32.7058 56.4569 33.2506 57.0387 33.2393 57.7443Z" fill="white"/>
<path d="M59.62 57.7234C59.62 58.4627 59.0319 59.0333 58.2815 59.0188C57.5696 59.006 57.0168 58.4498 57.0072 57.7394C56.9975 57.0258 57.6291 56.4102 58.349 56.4311C59.048 56.4504 59.62 57.0322 59.62 57.7234Z" fill="white"/>
</g>
<defs>
<clipPath id="clip0">
<rect width="45" height="45" fill="white" transform="translate(20 18)"/>
</clipPath>
</defs>
</svg>
