<svg width="20" height="21" viewBox="0 0 20 21" fill="none" xmlns="http://www.w3.org/2000/svg">
<path d="M19.9492 6.1394C19.9023 5.02985 19.7304 4.26705 19.4842 3.60607C19.2302 2.90446 18.8394 2.2763 18.3274 1.75411C17.8272 1.2238 17.2215 0.811724 16.5572 0.55071C15.9203 0.29368 15.1934 0.114253 14.1306 0.0653331C13.0597 0.0122699 12.7198 0 10.0039 0C7.28799 0 6.94805 0.0122699 5.88119 0.06119C4.81831 0.11011 4.08759 0.289697 3.45456 0.546567C2.7823 0.811724 2.18057 1.21966 1.68034 1.75411C1.17233 2.2763 0.777738 2.9086 0.527549 3.60209C0.281329 4.26705 0.109448 5.02571 0.0625854 6.13526C0.0117538 7.25309 0 7.60796 0 10.4431C0 13.2782 0.0117538 13.6331 0.0586166 14.7468C0.105479 15.8563 0.277513 16.6192 0.523733 17.2801C0.777738 17.9817 1.17233 18.6099 1.68034 19.1321C2.18057 19.6624 2.78627 20.0745 3.45059 20.3355C4.08759 20.5925 4.81434 20.7719 5.87738 20.8209C6.94408 20.8699 7.28418 20.8821 10.0001 20.8821C12.716 20.8821 13.0559 20.8699 14.1228 20.8209C15.1857 20.7719 15.9164 20.5925 16.5494 20.3355C17.8938 19.7929 18.9567 18.6834 19.4764 17.2801C19.7225 16.6152 19.8945 15.8563 19.9414 14.7468C19.9882 13.6331 20 13.2782 20 10.4431C20 7.60796 19.996 7.25309 19.9492 6.1394ZM18.1478 14.6652C18.1047 15.685 17.9406 16.2358 17.8039 16.6029C17.4677 17.5126 16.7761 18.2346 15.9046 18.5855C15.5529 18.7283 15.0216 18.8996 14.0484 18.9444C12.9933 18.9935 12.6769 19.0056 10.0079 19.0056C7.33882 19.0056 7.01842 18.9935 5.96714 18.9444C4.99019 18.8996 4.46264 18.7283 4.11094 18.5855C3.67727 18.4182 3.28253 18.153 2.96212 17.8063C2.62996 17.4677 2.37596 17.0598 2.21568 16.607C2.0789 16.2399 1.91481 15.685 1.87191 14.6694C1.8249 13.5679 1.8133 13.2374 1.8133 10.4512C1.8133 7.66501 1.8249 7.33053 1.87191 6.23326C1.91481 5.21342 2.0789 4.66271 2.21568 4.29557C2.37596 3.8427 2.62996 3.43079 2.96609 3.09615C3.29031 2.74941 3.68109 2.48425 4.11491 2.31709C4.46661 2.17432 4.99813 2.00302 5.9711 1.95808C7.0262 1.90916 7.34279 1.89689 10.0117 1.89689C12.6847 1.89689 13.0011 1.90916 14.0524 1.95808C15.0293 2.00302 15.5569 2.17432 15.9086 2.31709C16.3423 2.48425 16.737 2.74941 17.0574 3.09615C17.3896 3.43477 17.6436 3.8427 17.8039 4.29557C17.9406 4.66271 18.1047 5.21741 18.1478 6.23326C18.1946 7.33468 18.2064 7.66501 18.2064 10.4512C18.2064 13.2374 18.1946 13.5638 18.1478 14.6652Z" fill="#4640DE"/>
<path d="M10.0001 5.31567C7.13749 5.31567 4.81494 7.61134 4.81494 10.4411C4.81494 13.2709 7.13749 15.5665 10.0001 15.5665C12.8628 15.5665 15.1852 13.2709 15.1852 10.4411C15.1852 7.61134 12.8628 5.31567 10.0001 5.31567ZM10.0001 13.7658C8.14297 13.7658 6.6366 12.277 6.6366 10.4411C6.6366 8.60524 8.14297 7.11636 10.0001 7.11636C11.8573 7.11636 13.3635 8.60524 13.3635 10.4411C13.3635 12.277 11.8573 13.7658 10.0001 13.7658V13.7658Z" fill="#4640DE"/>
<path d="M16.6666 4.93541C16.6666 5.56428 16.0862 6.07419 15.3702 6.07419C14.6544 6.07419 14.074 5.56428 14.074 4.93541C14.074 4.30639 14.6544 3.79663 15.3702 3.79663C16.0862 3.79663 16.6666 4.30639 16.6666 4.93541V4.93541Z" fill="#4640DE"/>
</svg>
