<svg width="87" height="87" viewBox="0 0 87 87" fill="none" xmlns="http://www.w3.org/2000/svg">
<g clip-path="url(#clip0)">
<path d="M43.8836 0.581055C67.6332 0.581055 86.8838 19.8343 86.8838 43.5812C86.8838 67.3281 67.6332 86.5811 43.8836 86.5811C20.1341 86.5811 0.883789 67.3278 0.883789 43.5812C0.883789 19.8346 20.1344 0.581055 43.8836 0.581055Z" fill="#1B95D0"/>
<path d="M25.1141 59.6629H33.166V32.8255H25.1141V59.6629ZM56.4828 31.8959C52.5751 31.8959 49.0786 33.3229 46.5983 36.4728V32.7372H38.5169V59.6632H46.5983V45.1023C46.5983 42.0251 49.4175 39.0231 52.9488 39.0231C56.4801 39.0231 57.351 42.0251 57.351 45.0271V59.6606H65.4028V44.4278C65.4025 33.8469 60.3931 31.8959 56.4828 31.8959ZM29.1024 30.1435C31.3277 30.1435 33.1338 28.3374 33.1338 26.1121C33.1338 23.8868 31.3277 22.0811 29.1024 22.0811C26.8771 22.0811 25.071 23.8871 25.071 26.1124C25.071 28.3377 26.8771 30.1435 29.1024 30.1435Z" fill="white"/>
</g>
<defs>
<clipPath id="clip0">
<rect width="86" height="86" fill="white" transform="translate(0.883789 0.581055)"/>
</clipPath>
</defs>
</svg>
