<svg width="87" height="87" viewBox="0 0 87 87" fill="none" xmlns="http://www.w3.org/2000/svg">
<g clip-path="url(#clip0)">
<path d="M43.7015 0.983887C67.4511 0.983887 86.7017 20.2371 86.7017 43.984C86.7017 67.7336 67.4511 86.9839 43.7015 86.9839C19.9519 86.9839 0.70166 67.7333 0.70166 43.984C0.70166 20.2371 19.9522 0.983887 43.7015 0.983887Z" fill="#1FA8F5"/>
<path d="M70.5852 29.9532C68.7067 30.7647 66.6854 31.3103 64.5653 31.5577C66.7315 30.2971 68.3923 28.3056 69.1744 25.9274C67.148 27.0965 64.9065 27.9431 62.5174 28.3972C60.6065 26.4219 57.8841 25.1882 54.8688 25.1882C49.0854 25.1882 44.393 29.7383 44.393 35.3549C44.393 36.1532 44.4846 36.9299 44.6643 37.6744C35.9569 37.2499 28.233 33.1996 23.0677 27.048C22.1647 28.5504 21.6487 30.2945 21.6487 32.1596C21.6487 35.6856 23.4976 38.803 26.3088 40.6226C24.5889 40.5689 22.9762 40.1146 21.5601 39.3488V39.4778C21.5601 44.4066 25.172 48.5159 29.9665 49.4512C29.0876 49.6823 28.163 49.8087 27.2063 49.8087C26.5317 49.8087 25.8761 49.747 25.2363 49.6259C26.5692 53.6679 30.4394 56.6079 35.0269 56.6888C31.4393 59.4192 26.9214 61.0425 22.0115 61.0425C21.1648 61.0425 20.3317 60.9941 19.5093 60.9003C24.1506 63.7865 29.6547 65.4716 35.5751 65.4716C54.8499 65.4716 65.3904 49.9701 65.3904 36.5325L65.3608 35.2156C67.4031 33.7856 69.1797 31.9958 70.5852 29.9532Z" fill="white"/>
</g>
<defs>
<clipPath id="clip0">
<rect width="86" height="86" fill="white" transform="translate(0.70166 0.983887)"/>
</clipPath>
</defs>
</svg>
