<svg width="41" height="39" viewBox="0 0 41 39" fill="none" xmlns="http://www.w3.org/2000/svg">
<path d="M0.230357 38.0819H8.28218V11.2444H0.230357V38.0819ZM31.599 10.3148C27.6913 10.3148 24.1948 11.7419 21.7145 14.8917V11.1562H13.6331V38.0822H21.7145V23.5213C21.7145 20.444 24.5337 17.442 28.065 17.442C31.5963 17.442 32.4672 20.444 32.4672 23.446V38.0795H40.519V22.8467C40.5187 12.2658 35.5093 10.3148 31.599 10.3148ZM4.21863 8.56245C6.44392 8.56245 8.25001 6.75636 8.25001 4.53108C8.25001 2.30579 6.44392 0.5 4.21863 0.5C1.99334 0.5 0.187256 2.30609 0.187256 4.53137C0.187256 6.75666 1.99334 8.56245 4.21863 8.56245Z" fill="white"/>
</svg>
