<svg width="64" height="64" viewBox="0 0 64 64" fill="none" xmlns="http://www.w3.org/2000/svg">
<circle cx="32" cy="32" r="32" fill="#1AEAAB" fill-opacity="0.1"/>
<path d="M42.0625 22.875C43.961 22.875 45.5 21.336 45.5 19.4375C45.5 17.539 43.961 16 42.0625 16C40.164 16 38.625 17.539 38.625 19.4375C38.625 21.336 40.164 22.875 42.0625 22.875Z" fill="#1AEAAB"/>
<path d="M18.6568 39.125H16.9375C16.4197 39.125 16 39.5447 16 40.0625V44.25H18.6568V39.125Z" fill="#1AEAAB"/>
<path d="M23.1889 34.125H21.4695C20.9517 34.125 20.532 34.5447 20.532 35.0625V44.25H23.1888V34.125H23.1889Z" fill="#1AEAAB"/>
<path d="M27.7205 29.125H26.0012C25.4835 29.125 25.0637 29.5447 25.0637 30.0625V44.25H27.7205V29.125Z" fill="#1AEAAB"/>
<path d="M28.9737 24.8109H29.5952V44.2499H33.8139V24.8109H34.4354C35.2363 24.8109 35.6684 23.8714 35.1472 23.2633L32.4164 20.0774C32.0422 19.6409 31.3669 19.6409 30.9927 20.0774L28.2619 23.2634C27.7407 23.8714 28.1728 24.8109 28.9737 24.8109Z" fill="#1AEAAB"/>
<path d="M45.9387 23.0649C44.9686 24.1009 43.5903 24.7501 42.0625 24.7501C40.5347 24.7501 39.1564 24.1009 38.1863 23.0649C36.9241 24.1538 36.125 25.7648 36.125 27.5626V33.1876C36.125 33.7053 36.5447 34.1251 37.0625 34.1251H38.625V44.2501H45.5V34.1251H47.0625C47.5802 34.1251 48 33.7053 48 33.1876V27.5626C48 25.7648 47.2009 24.1538 45.9387 23.0649Z" fill="#1AEAAB"/>
<path d="M47.0625 46.125H16V47.0625C16 47.5803 16.4197 48 16.9375 48H47.0625C47.5802 48 48 47.5803 48 47.0625C48 46.5447 47.5802 46.125 47.0625 46.125Z" fill="#1AEAAB"/>
</svg>
