<svg width="12" height="15" viewBox="0 0 12 15" fill="none" xmlns="http://www.w3.org/2000/svg">
<path d="M6.06065 12.7122L9.43973 7.50209L6.06065 12.7122ZM6.06065 12.7122L2.59309 7.55194C2.20351 6.97093 1.99297 6.30174 1.99297 5.6167C1.99297 3.59077 3.78598 1.92401 6 1.92401C8.21393 1.92401 10.0043 3.59069 10.0043 5.6167C10.0043 6.28162 9.80757 6.93365 9.43978 7.50201L6.06065 12.7122ZM1.72977 8.06244L1.72982 8.06252L5.63683 13.8767C5.7315 14.0176 5.89553 14.1 6.06833 14.1L6.07159 14.1L6.07231 14.1C6.24659 14.0987 6.4111 14.0138 6.50413 13.8703L10.3115 7.99975L10.3116 7.99967C10.7761 7.28201 11.0219 6.45797 11.0219 5.6167C11.0219 3.04792 8.7615 0.971533 6 0.971533C3.2385 0.971533 0.978125 3.04792 0.978125 5.6167C0.978125 6.4837 1.23824 7.32938 1.72977 8.06244ZM6 3.53672C4.58142 3.53672 3.43906 4.77093 3.43906 6.27344C3.43906 7.76593 4.56278 9.01016 6 9.01016C7.45498 9.01016 8.56094 7.74918 8.56094 6.27344C8.56094 4.77093 7.41858 3.53672 6 3.53672ZM6 7.93711C5.15234 7.93711 4.45391 7.19661 4.45391 6.27344C4.45391 5.3528 5.15697 4.60977 6 4.60977C6.84282 4.60977 7.54336 5.35257 7.54336 6.27344C7.54336 7.18379 6.86082 7.93711 6 7.93711Z" fill="black" stroke="black" stroke-width="0.2"/>
</svg>
