<svg width="20" height="21" viewBox="0 0 20 21" fill="none" xmlns="http://www.w3.org/2000/svg">
<g clip-path="url(#clip0)">
<path d="M10 0.269775C6.12297 0.269775 2.96875 3.42399 2.96875 7.30103C2.96875 8.61095 3.3316 9.88931 4.01832 10.9984L9.59977 19.9928C9.70668 20.1651 9.89504 20.2698 10.0976 20.2698C10.0992 20.2698 10.1007 20.2698 10.1023 20.2698C10.3066 20.2682 10.4954 20.1602 10.6003 19.9849L16.0395 10.9034C16.6883 9.81774 17.0312 8.57208 17.0312 7.30103C17.0312 3.42399 13.877 0.269775 10 0.269775ZM15.0338 10.3017L10.0887 18.5583L5.01434 10.3809C4.44273 9.45782 4.13281 8.39282 4.13281 7.30103C4.13281 4.07017 6.76914 1.43384 10 1.43384C13.2309 1.43384 15.8633 4.07017 15.8633 7.30103C15.8633 8.36044 15.5738 9.39821 15.0338 10.3017Z" fill="black" fill-opacity="0.5"/>
<path d="M10 3.7854C8.06148 3.7854 6.48438 5.36251 6.48438 7.30103C6.48438 9.22716 8.03582 10.8167 10 10.8167C11.9884 10.8167 13.5156 9.20599 13.5156 7.30103C13.5156 5.36251 11.9385 3.7854 10 3.7854ZM10 9.65259C8.7009 9.65259 7.64844 8.59661 7.64844 7.30103C7.64844 6.00868 8.70766 4.94946 10 4.94946C11.2923 4.94946 12.3477 6.00868 12.3477 7.30103C12.3477 8.5777 11.3197 9.65259 10 9.65259Z" fill="black" fill-opacity="0.5"/>
</g>
<defs>
<clipPath id="clip0">
<rect width="20" height="20" fill="white" transform="translate(0 0.269775)"/>
</clipPath>
</defs>
</svg>
