<svg width="153" height="51" viewBox="0 0 153 51" fill="none" xmlns="http://www.w3.org/2000/svg">
<path d="M56.16 40.3697C54.72 40.3697 53.3467 40.1964 52.04 39.8497C50.76 39.4764 49.6133 38.9164 48.6 38.1697C47.5867 37.4231 46.7733 36.5031 46.16 35.4097C45.5733 34.3164 45.2667 33.0231 45.24 31.5297C45.24 31.2897 45.32 31.0897 45.48 30.9297C45.64 30.7431 45.84 30.6497 46.08 30.6497H49.88C50.2267 30.6497 50.48 30.7431 50.64 30.9297C50.8267 31.1164 50.9733 31.3697 51.08 31.6897C51.2133 32.6497 51.52 33.4364 52 34.0497C52.48 34.6364 53.08 35.0764 53.8 35.3697C54.5467 35.6364 55.3733 35.7697 56.28 35.7697C57.96 35.7697 59.24 35.2231 60.12 34.1297C61.0267 33.0364 61.48 31.5164 61.48 29.5697V16.6897H47.92C47.6267 16.6897 47.3867 16.5964 47.2 16.4097C47.04 16.2231 46.96 15.9964 46.96 15.7297V12.9297C46.96 12.6631 47.04 12.4364 47.2 12.2497C47.3867 12.0631 47.6267 11.9697 47.92 11.9697H66.2C66.4933 11.9697 66.7333 12.0631 66.92 12.2497C67.1067 12.4364 67.2 12.6764 67.2 12.9697V29.7297C67.2 31.9431 66.7333 33.8497 65.8 35.4497C64.8933 37.0497 63.6133 38.2764 61.96 39.1297C60.3333 39.9564 58.4 40.3697 56.16 40.3697ZM81.9338 40.3697C79.8004 40.3697 78.0004 39.9964 76.5338 39.2497C75.0938 38.5031 73.9871 37.4497 73.2138 36.0897C72.4671 34.7297 72.0404 33.1431 71.9338 31.3297C71.9071 30.8497 71.8938 30.2631 71.8938 29.5697C71.8938 28.8764 71.9071 28.2897 71.9338 27.8097C72.0404 25.9697 72.4804 24.3831 73.2538 23.0497C74.0538 21.6897 75.1738 20.6364 76.6138 19.8897C78.0804 19.1431 79.8538 18.7697 81.9338 18.7697C84.0138 18.7697 85.7738 19.1431 87.2138 19.8897C88.6804 20.6364 89.8004 21.6897 90.5738 23.0497C91.3738 24.3831 91.8271 25.9697 91.9338 27.8097C91.9604 28.2897 91.9738 28.8764 91.9738 29.5697C91.9738 30.2631 91.9604 30.8497 91.9338 31.3297C91.8271 33.1431 91.3871 34.7297 90.6138 36.0897C89.8671 37.4497 88.7604 38.5031 87.2938 39.2497C85.8538 39.9964 84.0671 40.3697 81.9338 40.3697ZM81.9338 36.4097C83.3471 36.4097 84.4404 35.9697 85.2138 35.0897C85.9871 34.1831 86.4138 32.8631 86.4938 31.1297C86.5204 30.7297 86.5338 30.2097 86.5338 29.5697C86.5338 28.9297 86.5204 28.4097 86.4938 28.0097C86.4138 26.2764 85.9871 24.9697 85.2138 24.0897C84.4404 23.1831 83.3471 22.7297 81.9338 22.7297C80.5204 22.7297 79.4271 23.1831 78.6538 24.0897C77.8804 24.9697 77.4538 26.2764 77.3738 28.0097C77.3471 28.4097 77.3338 28.9297 77.3338 29.5697C77.3338 30.2097 77.3471 30.7297 77.3738 31.1297C77.4538 32.8631 77.8804 34.1831 78.6538 35.0897C79.4271 35.9697 80.5204 36.4097 81.9338 36.4097ZM107.926 40.3697C106.379 40.3697 105.086 40.1031 104.046 39.5697C103.032 39.0364 102.192 38.3564 101.526 37.5297V39.0097C101.526 39.2764 101.432 39.5031 101.246 39.6897C101.086 39.8764 100.859 39.9697 100.566 39.9697H97.4056C97.139 39.9697 96.9123 39.8764 96.7256 39.6897C96.539 39.5031 96.4456 39.2764 96.4456 39.0097V12.5297C96.4456 12.2631 96.539 12.0364 96.7256 11.8497C96.9123 11.6631 97.139 11.5697 97.4056 11.5697H100.806C101.099 11.5697 101.326 11.6631 101.486 11.8497C101.672 12.0364 101.766 12.2631 101.766 12.5297V21.4097C102.432 20.6364 103.259 20.0097 104.246 19.5297C105.259 19.0231 106.486 18.7697 107.926 18.7697C109.339 18.7697 110.566 19.0097 111.606 19.4897C112.646 19.9697 113.512 20.6497 114.206 21.5297C114.926 22.3831 115.472 23.3831 115.846 24.5297C116.219 25.6764 116.419 26.9164 116.446 28.2497C116.472 28.7297 116.486 29.1697 116.486 29.5697C116.486 29.9431 116.472 30.3697 116.446 30.8497C116.392 32.2364 116.179 33.5164 115.806 34.6897C115.432 35.8364 114.899 36.8364 114.206 37.6897C113.512 38.5431 112.646 39.2097 111.606 39.6897C110.566 40.1431 109.339 40.3697 107.926 40.3697ZM106.446 36.0897C107.592 36.0897 108.486 35.8497 109.126 35.3697C109.766 34.8631 110.232 34.2097 110.526 33.4097C110.819 32.6097 110.992 31.7297 111.046 30.7697C111.072 29.9697 111.072 29.1697 111.046 28.3697C110.992 27.4097 110.819 26.5297 110.526 25.7297C110.232 24.9297 109.766 24.2897 109.126 23.8097C108.486 23.3031 107.592 23.0497 106.446 23.0497C105.379 23.0497 104.512 23.2897 103.846 23.7697C103.179 24.2497 102.672 24.8631 102.326 25.6097C101.979 26.3297 101.792 27.0897 101.766 27.8897C101.739 28.3697 101.726 28.8897 101.726 29.4497C101.726 29.9831 101.739 30.4897 101.766 30.9697C101.819 31.7964 101.992 32.6097 102.286 33.4097C102.606 34.1831 103.099 34.8231 103.766 35.3297C104.459 35.8364 105.352 36.0897 106.446 36.0897ZM121.937 39.9697C121.67 39.9697 121.444 39.8764 121.257 39.6897C121.07 39.5031 120.977 39.2764 120.977 39.0097V12.5297C120.977 12.2631 121.07 12.0364 121.257 11.8497C121.444 11.6631 121.67 11.5697 121.937 11.5697H125.257C125.524 11.5697 125.75 11.6631 125.937 11.8497C126.124 12.0364 126.217 12.2631 126.217 12.5297V39.0097C126.217 39.2764 126.124 39.5031 125.937 39.6897C125.75 39.8764 125.524 39.9697 125.257 39.9697H121.937ZM135.283 47.5697C135.069 47.5697 134.883 47.4897 134.723 47.3297C134.563 47.1697 134.483 46.9831 134.483 46.7697C134.483 46.6631 134.483 46.5564 134.483 46.4497C134.509 46.3697 134.563 46.2631 134.643 46.1297L137.763 38.7297L130.083 20.6097C129.976 20.3431 129.923 20.1564 129.923 20.0497C129.949 19.8097 130.043 19.6097 130.203 19.4497C130.363 19.2631 130.563 19.1697 130.803 19.1697H134.043C134.363 19.1697 134.603 19.2497 134.763 19.4097C134.923 19.5697 135.043 19.7431 135.123 19.9297L140.443 33.0097L145.923 19.9297C146.003 19.7164 146.123 19.5431 146.283 19.4097C146.443 19.2497 146.683 19.1697 147.003 19.1697H150.203C150.416 19.1697 150.603 19.2497 150.763 19.4097C150.949 19.5697 151.043 19.7564 151.043 19.9697C151.043 20.1297 150.989 20.3431 150.883 20.6097L139.563 46.8097C139.456 47.0231 139.323 47.1964 139.163 47.3297C139.003 47.4897 138.763 47.5697 138.443 47.5697H135.283Z" fill="black"/>
<path d="M21.8919 20.0497C18.3928 21.2253 17.9734 21.8316 17.9475 25.6608C17.9257 28.4528 18.5584 29.2286 21.6858 30.2486C23.1886 41.2803 11.0037 49.8025 1.80356 49.5339C1.84278 46.4374 2.18571 43.2987 1.84911 40.2222C1.36241 35.7784 2.73675 32.3021 6.82722 29.0881C11.2239 25.6363 11.2495 24.6855 6.89389 21.3245C2.85199 18.2031 1.69183 14.7721 2.23122 10.4116C2.62406 7.26146 2.37949 4.06445 2.41961 0.896629C11.5982 0.729413 23.2843 8.71612 21.8919 20.0497Z" fill="#2C69FF"/>
<path d="M29.7646 23.5119C30.1191 26.7538 30.1191 26.7538 26.5539 26.7648C25.0496 26.7694 23.5407 26.774 21.8984 26.7791C21.9133 25.6025 21.9257 24.6284 21.9395 23.5359C24.5249 23.528 27.078 23.5202 29.7646 23.5119Z" fill="#2C69FF"/>
</svg>
