<svg width="85" height="80" viewBox="0 0 85 80" fill="none" xmlns="http://www.w3.org/2000/svg">
<rect width="85" height="80" rx="12" fill="#FEA801" fill-opacity="0.1"/>
<g clip-path="url(#clip0)">
<path d="M45.8222 48.5C41.6425 47.1295 37.5744 45.8055 33.5189 44.4443C33.2896 44.367 33.0194 43.9839 33.0178 43.7428C32.988 38.723 32.9896 33.7017 33.0163 28.6819C33.0178 28.4331 33.266 28.0345 33.4875 27.9604C37.5179 26.6054 41.5609 25.289 45.6023 23.9665C45.6463 23.9526 45.7012 23.9757 45.8222 23.9881C45.8222 32.118 45.8222 40.2542 45.8222 48.5Z" fill="#FDCB02"/>
<path d="M30.3462 43.7073C30.2567 43.7428 30.186 43.7969 30.1153 43.7969C27.8943 43.783 25.6687 43.8371 23.4524 43.7197C21.566 43.6208 20.0754 42.0464 20.0409 40.2063C19.9906 37.5318 19.9843 34.8543 20.0424 32.1798C20.0864 30.1358 21.7561 28.6464 24.0006 28.5923C25.9357 28.5459 27.8708 28.5861 29.8075 28.5706C30.23 28.5676 30.42 28.685 30.4185 29.1361C30.4075 33.8964 30.4106 38.6551 30.4059 43.4153C30.4059 43.5142 30.3666 43.613 30.3462 43.7073Z" fill="#FDCB02"/>
<path d="M48.4471 36.1351C48.4471 32.0686 48.4283 28.0021 48.4676 23.9356C48.4739 23.3222 48.6356 22.6408 48.9435 22.114C49.4712 21.2086 50.3917 20.8872 51.4425 21.0355C52.4744 21.1808 53.2645 21.91 53.4954 22.9112C53.5708 23.2341 53.61 23.5725 53.61 23.9047C53.6163 32.115 53.6179 40.3252 53.6116 48.5355C53.61 49.9384 52.966 50.9056 51.8509 51.261C50.1089 51.8156 48.466 50.612 48.4471 48.7209C48.422 46.0959 48.4409 43.4709 48.4409 40.8459C48.4409 39.2762 48.4409 37.7064 48.4409 36.1367C48.444 36.1351 48.4456 36.1351 48.4471 36.1351Z" fill="#FDCB02"/>
<path d="M32.4367 48.8569C33.0618 48.8569 33.6461 48.9295 34.1975 48.8322C34.5933 48.7626 35.0503 48.5448 35.2938 48.2466C35.5624 47.9206 35.743 47.8356 36.1231 47.9824C36.7027 48.2049 37.2996 48.3841 37.9687 48.6081C37.075 51.1682 35.0551 51.5684 32.6362 51.3938C32.743 52.602 32.809 53.7175 32.9456 54.8269C33.1985 56.874 31.6843 58.7482 29.5498 58.9784C27.4293 59.207 25.5523 57.7084 25.3309 55.6427C25.0214 52.7534 24.6884 49.8673 24.368 46.9797C24.3492 46.8051 24.346 46.6305 24.3303 46.3354C25.1188 46.3354 25.8665 46.3354 26.6157 46.3354C27.8974 46.3354 29.1791 46.3323 30.4608 46.3369C31.9356 46.3416 32.1508 46.5362 32.2906 47.9453C32.3205 48.2435 32.3864 48.5417 32.4367 48.8569Z" fill="#FDCB02"/>
<path d="M64.0002 27.5772C63.8416 27.7672 63.617 28.2524 63.2384 28.4517C61.5593 29.3308 59.8457 30.145 58.1258 30.9469C57.3593 31.3038 56.6226 31.0473 56.3226 30.4061C56.0069 29.731 56.2472 29.0635 57.0137 28.6819C58.6881 27.8476 60.3672 27.0241 62.0635 26.233C63.0154 25.7896 63.9735 26.3458 64.0002 27.5772Z" fill="#FDCB02"/>
<path d="M63.9984 42.3121C63.9748 43.44 63.0732 44.0688 62.2046 43.681C60.3779 42.8637 58.5842 41.9753 56.803 41.0668C56.1951 40.7578 56.0396 40.044 56.3239 39.4554C56.6004 38.8806 57.2805 38.5376 57.9041 38.8235C59.7685 39.6794 61.6125 40.5832 63.4329 41.5303C63.7423 41.6926 63.89 42.1545 63.9984 42.3121Z" fill="#FDCB02"/>
<path d="M60.0766 36.1861C59.2394 36.1846 58.4022 36.2046 57.5651 36.1799C56.7137 36.1552 56.1813 35.6453 56.1876 34.9145C56.1938 34.1961 56.7499 33.6785 57.5949 33.6693C59.2426 33.6507 60.8902 33.6523 62.5395 33.6677C63.4426 33.677 64.0034 34.1946 63.9924 34.9454C63.9814 35.6732 63.4552 36.1583 62.5866 36.183C61.7525 36.2046 60.9138 36.1861 60.0766 36.1861Z" fill="#FDCB02"/>
</g>
<defs>
<clipPath id="clip0">
<rect width="44" height="38" fill="white" transform="translate(20 21)"/>
</clipPath>
</defs>
</svg>
