<svg width="64" height="64" viewBox="0 0 64 64" fill="none" xmlns="http://www.w3.org/2000/svg">
<circle cx="32" cy="32" r="32" fill="#1AEAAB" fill-opacity="0.1"/>
<g clip-path="url(#clip0)">
<path d="M20.9317 26.6799C20.6138 26.2334 20.309 25.8057 19.9731 25.3341C20.3719 25.0149 20.7438 24.7176 21.1157 24.4192C21.1027 24.3837 21.0897 24.3472 21.0767 24.3118C20.072 24.3118 19.0674 24.3118 18.0318 24.3118C18.0318 23.7275 18.0318 23.1986 18.0318 22.5998C19.0434 22.5998 20.046 22.5998 21.0487 22.5998C21.0637 22.557 21.0787 22.5132 21.0947 22.4704C20.7388 22.1814 20.3819 21.8925 19.9791 21.5659C20.304 21.1069 20.6128 20.6687 20.9467 20.1972C21.8804 20.9264 22.7661 21.6296 23.6668 22.3118C23.8457 22.4475 24.0706 22.5372 24.2865 22.5914C24.5824 22.6655 24.7524 22.532 24.8773 22.2075C25.4171 20.8064 26.4558 20.0553 27.8822 20.0323C30.6133 19.9885 33.3463 19.9906 36.0773 20.0303C37.5258 20.0511 38.5744 20.8012 39.1192 22.2284C39.2332 22.5268 39.3891 22.6019 39.675 22.6071C40.4718 22.6217 41.2885 22.5654 42.0622 22.7239C44.5383 23.233 46.2287 25.6586 45.9758 28.2198C45.7199 30.8102 43.6886 32.7777 41.1815 32.8549C40.6657 32.8706 40.1479 32.8737 39.6331 32.8508C39.3492 32.8383 39.2262 32.9614 39.1252 33.2222C38.5654 34.6671 37.5028 35.4109 36.0343 35.4307C33.3533 35.4662 30.6703 35.4641 27.9892 35.4328C26.5017 35.4151 25.4321 34.6754 24.8423 33.2149C24.7814 33.0636 24.5814 32.88 24.4405 32.8748C23.8097 32.8497 23.1699 32.8268 22.5462 32.9092C20.8258 33.1356 19.5792 34.6472 19.6362 36.3686C19.6952 38.1703 21.0307 39.5881 22.8001 39.7008C23.3309 39.7341 23.8667 39.731 24.3975 39.6945C24.5484 39.6841 24.7614 39.5328 24.8213 39.3888C25.4551 37.8594 26.5697 37.1271 28.1512 37.1281C30.6992 37.1302 33.2483 37.1333 35.7964 37.1271C37.3959 37.1239 38.5334 37.8406 39.1692 39.3993C39.2242 39.5338 39.4181 39.6903 39.5511 39.6945C40.3638 39.7216 41.1775 39.7081 42.1582 39.7081C41.6863 39.3116 41.3274 39.0101 40.9186 38.6669C41.2355 38.2204 41.5374 37.7958 41.8813 37.3107C43.2408 38.3873 44.5733 39.441 45.9888 40.5614C44.6093 41.6569 43.2718 42.7199 41.8912 43.8164C41.5584 43.3563 41.2515 42.9328 40.9146 42.4675C41.3125 42.1357 41.6793 41.8311 42.0452 41.5254C42.0342 41.4899 42.0242 41.4555 42.0132 41.42C41.1565 41.42 40.2988 41.4106 39.4421 41.4336C39.3442 41.4367 39.2102 41.6068 39.1612 41.7288C38.5464 43.2729 37.4218 43.9958 35.8434 43.9979C33.2783 44 30.7132 43.999 28.1482 43.9979C26.5697 43.9979 25.4471 43.2791 24.8223 41.7372C24.7644 41.5932 24.5504 41.4409 24.4005 41.4294C23.8697 41.3919 23.3349 41.4284 22.8021 41.4117C20.093 41.3251 17.9918 39.0623 17.9998 36.2539C18.0078 33.484 20.122 31.2452 22.8171 31.1597C23.3159 31.144 23.8167 31.143 24.3155 31.1628C24.6054 31.1743 24.7554 31.0783 24.8693 30.782C25.4161 29.3559 26.4678 28.6079 27.9152 28.586C30.6293 28.5442 33.3453 28.5442 36.0603 28.5849C37.5278 28.6068 38.5754 29.3694 39.1502 30.8091C39.2072 30.951 39.3841 31.1346 39.5091 31.1388C40.1569 31.1586 40.8136 31.1868 41.4534 31.1023C43.1708 30.8749 44.4163 29.3538 44.3524 27.6345C44.2854 25.8307 42.9479 24.4203 41.1785 24.3128C40.6477 24.2805 40.1109 24.2836 39.5811 24.3211C39.4321 24.3316 39.2232 24.4902 39.1632 24.6362C38.5414 26.15 37.4368 26.8813 35.8784 26.8844C33.2803 26.8907 30.6813 26.8938 28.0832 26.8834C26.5457 26.8771 25.4501 26.1458 24.8463 24.6508C24.6724 24.221 24.2306 24.149 23.7787 24.4964C22.947 25.1349 22.1253 25.7869 21.2976 26.4316C21.1916 26.512 21.0787 26.5808 20.9317 26.6799Z" fill="#1AEAAB"/>
</g>
<defs>
<clipPath id="clip0">
<rect width="28" height="24" fill="white" transform="translate(18 20)"/>
</clipPath>
</defs>
</svg>
