<svg width="85" height="80" viewBox="0 0 85 80" fill="none" xmlns="http://www.w3.org/2000/svg">
<rect width="85" height="80" rx="12" fill="#0DC46E" fill-opacity="0.1"/>
<g clip-path="url(#clip0)">
<path d="M38.6866 30.2033H24.1951V31.7288H38.6866V30.2033Z" fill="#0DC46E"/>
<path d="M40.3697 30.6672L41.5787 29.7372L33.952 19.8226L32.743 20.7526L40.3697 30.6672Z" fill="#0DC46E"/>
<path d="M44.4489 29.3133L53.6023 23.2114L52.7561 21.942L43.6027 28.0439L44.4489 29.3133Z" fill="#0DC46E"/>
<path d="M60.5448 37.7766L61.0482 36.3366L45.7912 31.0031L45.2878 32.4431L60.5448 37.7766Z" fill="#0DC46E"/>
<path d="M23.1453 46.8146L42.2158 31.5612L41.2631 30.37L22.1926 45.6235L23.1453 46.8146Z" fill="#0DC46E"/>
<path d="M23.4322 34.0169C25.1172 34.0169 26.4831 32.651 26.4831 30.966C26.4831 29.2811 25.1172 27.9152 23.4322 27.9152C21.7473 27.9152 20.3813 29.2811 20.3813 30.966C20.3813 32.651 21.7473 34.0169 23.4322 34.0169Z" fill="#0DC46E"/>
<path d="M55.4658 24.1017C57.1507 24.1017 58.5166 22.7358 58.5166 21.0509C58.5166 19.3659 57.1507 18 55.4658 18C53.7808 18 52.4149 19.3659 52.4149 21.0509C52.4149 22.7358 53.7808 24.1017 55.4658 24.1017Z" fill="#0DC46E"/>
<path d="M61.5676 40.1187C63.2525 40.1187 64.6184 38.7527 64.6184 37.0678C64.6184 35.3829 63.2525 34.0169 61.5676 34.0169C59.8826 34.0169 58.5167 35.3829 58.5167 37.0678C58.5167 38.7527 59.8826 40.1187 61.5676 40.1187Z" fill="#0DC46E"/>
<path d="M33.3475 24.1017C35.0324 24.1017 36.3983 22.7358 36.3983 21.0509C36.3983 19.3659 35.0324 18 33.3475 18C31.6625 18 30.2966 19.3659 30.2966 21.0509C30.2966 22.7358 31.6625 24.1017 33.3475 24.1017Z" fill="#0DC46E"/>
<path d="M23.4322 49.2712C25.1172 49.2712 26.4831 47.9053 26.4831 46.2204C26.4831 44.5354 25.1172 43.1695 23.4322 43.1695C21.7473 43.1695 20.3813 44.5354 20.3813 46.2204C20.3813 47.9053 21.7473 49.2712 23.4322 49.2712Z" fill="#0DC46E"/>
<path d="M42.4996 36.3051C45.4483 36.3051 47.8387 33.9147 47.8387 30.966C47.8387 28.0174 45.4483 25.627 42.4996 25.627C39.551 25.627 37.1606 28.0174 37.1606 30.966C37.1606 33.9147 39.551 36.3051 42.4996 36.3051Z" fill="#0DC46E"/>
<path d="M56.229 42.4068C54.9653 42.4068 53.9409 43.4311 53.9409 44.6949C53.9409 43.4311 52.9165 42.4068 51.6528 42.4068C50.389 42.4068 49.3646 43.4311 49.3646 44.6949C49.3646 43.4311 48.3403 42.4068 47.0765 42.4068C45.8127 42.4068 44.7883 43.4311 44.7883 44.6949V32.4915C44.7883 31.2277 43.764 30.2033 42.5002 30.2033C41.2364 30.2033 40.212 31.2277 40.212 32.4915V48.5084C40.212 45.9808 38.1634 43.9321 35.6357 43.9321V57.6609L40.9748 63H58.5172V44.6949C58.5172 43.4311 57.4929 42.4068 56.229 42.4068Z" fill="#0DC46E"/>
<path d="M56.2287 42.4068C56.2066 42.4068 56.1868 42.4129 56.1646 42.4129C52.0171 53.1465 43.4152 58.2224 38.5079 60.5334L40.9745 63H58.5169V44.6949C58.5169 43.4311 57.4926 42.4068 56.2287 42.4068Z" fill="#0DC46E"/>
<path d="M40.2117 54.6101C39.7907 54.6101 39.449 54.2684 39.449 53.8474V48.5084C39.449 48.0874 39.7907 47.7457 40.2117 47.7457C40.6327 47.7457 40.9744 48.0874 40.9744 48.5084V53.8474C40.9744 54.2685 40.6327 54.6101 40.2117 54.6101Z" fill="#0DC46E"/>
</g>
<defs>
<clipPath id="clip0">
<rect width="45" height="45" fill="white" transform="translate(20 18)"/>
</clipPath>
</defs>
</svg>
