<svg width="85" height="80" viewBox="0 0 85 80" fill="none" xmlns="http://www.w3.org/2000/svg">
<rect width="85" height="80" rx="12" fill="#00EDED" fill-opacity="0.1"/>
<g clip-path="url(#clip0)">
<path d="M22 59.9949H29.1156V35.3293L22 37.1075V59.9949ZM24.3438 40.2231H26.6875V46.2559H24.3438V40.2231ZM24.3438 50.5153H26.6875V57.6512H24.3438V50.5153Z" fill="#00EDED"/>
<path d="M54.8845 28.852V59.995H62.0001V27.0739L54.8845 28.852ZM59.6564 57.6512H57.3126V50.5153H59.6564V57.6512ZM59.6564 46.6239H57.3126V43.4278H59.6564V46.6239ZM59.6564 39.5473H57.3126V33.5145H59.6564V39.5473Z" fill="#00EDED"/>
<path d="M38.5303 52.8568H40.8281V59.995H38.5303V52.8568Z" fill="#00EDED"/>
<path d="M31.46 59.995H36.1868V50.5057H47.8136V59.9949H52.5404V20.005L31.46 27.0962V59.995ZM45.4699 27.2711H47.8136V33.6189H45.4699V27.2711ZM45.4699 37.5033H47.8136V40.6997H45.4699V37.5033ZM45.4699 44.5798H47.8136V47.7762H45.4699V44.5798ZM40.8283 28.8665H43.1721V33.6386H40.8283V28.8665ZM40.8283 37.5229H43.1721V40.7194H40.8283V37.5229ZM40.8283 44.5995H43.1721V47.796H40.8283V44.5995ZM36.1868 30.4225H38.5305V33.6189H36.1868V30.4225ZM36.1868 37.5033H38.5305V40.6997H36.1868V37.5033ZM36.1868 44.5798H38.5305V47.7762H36.1868V44.5798Z" fill="#00EDED"/>
<path d="M43.1719 52.8568H45.4697V59.995H43.1719V52.8568Z" fill="#00EDED"/>
</g>
<defs>
<clipPath id="clip0">
<rect width="40" height="40" fill="white" transform="translate(22 20)"/>
</clipPath>
</defs>
</svg>
