<svg width="11" height="12" viewBox="0 0 11 12" fill="none" xmlns="http://www.w3.org/2000/svg">
<g clip-path="url(#clip0)">
<path d="M5.2373 0.282728C6.75989 0.345368 8.22887 1.17423 9.11919 2.86438C9.99667 4.53049 9.88552 6.20275 8.87343 7.79447C8.73044 8.0193 8.75893 8.1306 8.93487 8.30174C9.56268 8.9108 10.1788 9.53328 10.792 10.1574C11.0216 10.3912 11.0585 10.6988 10.9149 10.9527C10.7786 11.1938 10.4994 11.3392 10.2285 11.262C10.076 11.2184 9.92406 11.1205 9.80899 11.0081C9.18957 10.4035 8.57684 9.79111 7.97305 9.17031C7.82616 9.0193 7.72729 9.01762 7.55359 9.13339C4.5084 11.1597 0.486307 9.30957 0.0355605 5.67982C-0.319675 2.81964 1.95249 0.276017 5.2373 0.282728ZM4.82956 8.66304C6.78056 8.6787 8.36292 7.11326 8.38079 5.1485C8.39867 3.19604 6.82804 1.5976 4.87927 1.58362C2.92268 1.56964 1.32692 3.13619 1.31295 5.0853C1.29843 7.06013 2.85789 8.64682 4.82956 8.66304Z" fill="black"/>
</g>
<defs>
<clipPath id="clip0">
<rect width="11" height="11" fill="white" transform="translate(0 0.282715)"/>
</clipPath>
</defs>
</svg>
