<svg width="20" height="18" viewBox="0 0 20 18" fill="none" xmlns="http://www.w3.org/2000/svg">
<path d="M6.28983 17.0711C13.8374 17.0711 17.9648 10.5039 17.9648 4.80929C17.9648 4.62277 17.9611 4.43702 17.9532 4.2523C18.7543 3.64393 19.4506 2.88475 20 2.02062C19.2648 2.36399 18.4735 2.59482 17.6436 2.69926C18.4907 2.16552 19.1412 1.32156 19.4479 0.315489C18.6551 0.809148 17.777 1.1678 16.8424 1.36151C16.0936 0.523846 15.0274 0 13.847 0C11.5811 0 9.74346 1.92993 9.74346 4.30895C9.74346 4.6473 9.77954 4.97615 9.84987 5.29164C6.43954 5.11142 3.41534 3.39665 1.39175 0.788981C1.0395 1.42574 0.836223 2.16565 0.836223 2.95514C0.836223 4.45012 1.56066 5.77027 2.66217 6.5423C1.98898 6.52059 1.35665 6.32649 0.803811 6.00342C0.8032 6.02153 0.8032 6.03913 0.8032 6.0584C0.8032 8.14556 2.21757 9.88821 4.09538 10.2831C3.75047 10.3816 3.38758 10.4347 3.01331 10.4347C2.74937 10.4347 2.49203 10.4074 2.24204 10.3569C2.76442 12.0693 4.27933 13.3153 6.07531 13.3502C4.67084 14.5063 2.90165 15.195 0.978835 15.195C0.648113 15.195 0.321182 15.1751 0 15.1353C1.81604 16.3578 3.97246 17.0712 6.28996 17.0712" fill="#4640DE"/>
</svg>
