<svg width="52" height="41" viewBox="0 0 52 41" fill="none" xmlns="http://www.w3.org/2000/svg">
<path d="M51.5852 4.9532C49.7067 5.76473 47.6854 6.31028 45.5653 6.55766C47.7315 5.29712 49.3923 3.30564 50.1744 0.927435C48.148 2.09646 45.9065 2.94312 43.5174 3.39716C41.6065 1.42191 38.8841 0.188232 35.8688 0.188232C30.0854 0.188232 25.393 4.73829 25.393 10.3549C25.393 11.1532 25.4846 11.9299 25.6643 12.6744C16.9569 12.2499 9.233 8.19961 4.06773 2.04805C3.16468 3.55037 2.64866 5.29446 2.64866 7.15959C2.64866 10.6856 4.49755 13.803 7.30883 15.6226C5.58894 15.5689 3.97621 15.1146 2.56009 14.3488V14.4778C2.56009 19.4066 6.17198 23.5159 10.9665 24.4512C10.0876 24.6823 9.16303 24.8087 8.20626 24.8087C7.53171 24.8087 6.87605 24.747 6.23633 24.6259C7.5692 28.6679 11.4394 31.6079 16.0269 31.6888C12.4393 34.4192 7.92138 36.0425 3.01147 36.0425C2.16481 36.0425 1.33173 35.9941 0.509277 35.9003C5.15055 38.7865 10.6547 40.4716 16.5751 40.4716C35.8499 40.4716 46.3904 24.9701 46.3904 11.5325L46.3608 10.2156C48.4031 8.7856 50.1797 6.99575 51.5852 4.9532Z" fill="white"/>
</svg>
